<svg width="353" height="190" viewBox="0 0 353 190" fill="none" xmlns="http://www.w3.org/2000/svg">
<g opacity="0.4">
<path fill-rule="evenodd" clip-rule="evenodd" d="M174.461 20C150.161 20 130.461 39.6995 130.461 64C130.461 88.3005 150.161 108 174.461 108C198.762 108 218.461 88.3005 218.461 64C218.461 39.6995 198.762 20 174.461 20ZM122.461 64C122.461 35.2812 145.742 12 174.461 12C203.18 12 226.461 35.2812 226.461 64C226.461 92.7188 203.18 116 174.461 116C145.742 116 122.461 92.7188 122.461 64ZM174.461 32C176.67 32 178.461 33.7909 178.461 36V60H202.461C204.67 60 206.461 61.7909 206.461 64C206.461 66.2091 204.67 68 202.461 68H174.461C172.252 68 170.461 66.2091 170.461 64V36C170.461 33.7909 172.252 32 174.461 32Z" fill="white"/>
<path d="M8.75806 169.449L3.10962 185H0.801025L7.30493 167.938H8.79321L8.75806 169.449ZM13.4924 185L7.83228 169.449L7.79712 167.938H9.2854L15.8127 185H13.4924ZM13.1995 178.684V180.535H3.61353V178.684H13.1995ZM25.9846 172.32H27.9534V184.73C27.9534 185.848 27.7268 186.801 27.2737 187.59C26.8206 188.379 26.1877 188.977 25.3752 189.383C24.5706 189.797 23.6409 190.004 22.5862 190.004C22.1487 190.004 21.6331 189.934 21.0393 189.793C20.4534 189.66 19.8752 189.43 19.3049 189.102C18.7424 188.781 18.2698 188.348 17.887 187.801L19.0237 186.512C19.5549 187.152 20.1096 187.598 20.6877 187.848C21.2737 188.098 21.8518 188.223 22.4221 188.223C23.1096 188.223 23.7034 188.094 24.2034 187.836C24.7034 187.578 25.0901 187.195 25.3635 186.688C25.6448 186.188 25.7854 185.57 25.7854 184.836V175.109L25.9846 172.32ZM17.2542 178.801V178.555C17.2542 177.586 17.3674 176.707 17.594 175.918C17.8284 175.121 18.1604 174.438 18.5901 173.867C19.0276 173.297 19.5549 172.859 20.1721 172.555C20.7893 172.242 21.4846 172.086 22.2581 172.086C23.0549 172.086 23.7502 172.227 24.344 172.508C24.9456 172.781 25.4534 173.184 25.8674 173.715C26.2893 174.238 26.6213 174.871 26.8635 175.613C27.1057 176.355 27.2737 177.195 27.3674 178.133V179.211C27.2815 180.141 27.1135 180.977 26.8635 181.719C26.6213 182.461 26.2893 183.094 25.8674 183.617C25.4534 184.141 24.9456 184.543 24.344 184.824C23.7424 185.098 23.0393 185.234 22.2346 185.234C21.4768 185.234 20.7893 185.074 20.1721 184.754C19.5627 184.434 19.0393 183.984 18.6018 183.406C18.1643 182.828 17.8284 182.148 17.594 181.367C17.3674 180.578 17.2542 179.723 17.2542 178.801ZM19.4221 178.555V178.801C19.4221 179.434 19.4846 180.027 19.6096 180.582C19.7424 181.137 19.9417 181.625 20.2073 182.047C20.4807 182.469 20.8284 182.801 21.2502 183.043C21.6721 183.277 22.176 183.395 22.762 183.395C23.4807 183.395 24.0745 183.242 24.5432 182.938C25.012 182.633 25.3831 182.23 25.6565 181.73C25.9377 181.23 26.1565 180.688 26.3127 180.102V177.277C26.2268 176.848 26.094 176.434 25.9143 176.035C25.7424 175.629 25.5159 175.27 25.2346 174.957C24.9612 174.637 24.6213 174.383 24.2151 174.195C23.8088 174.008 23.3323 173.914 22.7854 173.914C22.1917 173.914 21.6799 174.039 21.2502 174.289C20.8284 174.531 20.4807 174.867 20.2073 175.297C19.9417 175.719 19.7424 176.211 19.6096 176.773C19.4846 177.328 19.4221 177.922 19.4221 178.555ZM39.0042 182.07V172.32H41.1838V185H39.1096L39.0042 182.07ZM39.4143 179.398L40.3167 179.375C40.3167 180.219 40.2268 181 40.0471 181.719C39.8752 182.43 39.594 183.047 39.2034 183.57C38.8127 184.094 38.301 184.504 37.6682 184.801C37.0354 185.09 36.2659 185.234 35.3596 185.234C34.7424 185.234 34.176 185.145 33.6604 184.965C33.1526 184.785 32.7151 184.508 32.3479 184.133C31.9807 183.758 31.6956 183.27 31.4924 182.668C31.2971 182.066 31.1995 181.344 31.1995 180.5V172.32H33.3674V180.523C33.3674 181.094 33.4299 181.566 33.5549 181.941C33.6877 182.309 33.8635 182.602 34.0823 182.82C34.3088 183.031 34.5588 183.18 34.8323 183.266C35.1135 183.352 35.4026 183.395 35.6995 183.395C36.6213 183.395 37.3518 183.219 37.8909 182.867C38.4299 182.508 38.8167 182.027 39.051 181.426C39.2932 180.816 39.4143 180.141 39.4143 179.398ZM51.9651 182.832V176.305C51.9651 175.805 51.8635 175.371 51.6604 175.004C51.4651 174.629 51.1682 174.34 50.7698 174.137C50.3713 173.934 49.8792 173.832 49.2932 173.832C48.7463 173.832 48.2659 173.926 47.8518 174.113C47.4456 174.301 47.1252 174.547 46.8909 174.852C46.6643 175.156 46.551 175.484 46.551 175.836H44.3831C44.3831 175.383 44.5002 174.934 44.7346 174.488C44.969 174.043 45.3049 173.641 45.7424 173.281C46.1877 172.914 46.719 172.625 47.3362 172.414C47.9612 172.195 48.6565 172.086 49.4221 172.086C50.344 172.086 51.1565 172.242 51.8596 172.555C52.5706 172.867 53.1252 173.34 53.5237 173.973C53.9299 174.598 54.1331 175.383 54.1331 176.328V182.234C54.1331 182.656 54.1682 183.105 54.2385 183.582C54.3167 184.059 54.4299 184.469 54.5784 184.812V185H52.3167C52.2073 184.75 52.1213 184.418 52.0588 184.004C51.9963 183.582 51.9651 183.191 51.9651 182.832ZM52.3401 177.312L52.3635 178.836H50.1721C49.5549 178.836 49.0042 178.887 48.5198 178.988C48.0354 179.082 47.6292 179.227 47.301 179.422C46.9729 179.617 46.7229 179.863 46.551 180.16C46.3792 180.449 46.2932 180.789 46.2932 181.18C46.2932 181.578 46.3831 181.941 46.5627 182.27C46.7424 182.598 47.012 182.859 47.3713 183.055C47.7385 183.242 48.1877 183.336 48.719 183.336C49.3831 183.336 49.969 183.195 50.4768 182.914C50.9846 182.633 51.387 182.289 51.6838 181.883C51.9885 181.477 52.1526 181.082 52.176 180.699L53.1018 181.742C53.0471 182.07 52.8987 182.434 52.6565 182.832C52.4143 183.23 52.0901 183.613 51.6838 183.98C51.2854 184.34 50.8088 184.641 50.2542 184.883C49.7073 185.117 49.0901 185.234 48.4026 185.234C47.5432 185.234 46.7893 185.066 46.1409 184.73C45.5002 184.395 45.0002 183.945 44.6409 183.383C44.2893 182.812 44.1135 182.176 44.1135 181.473C44.1135 180.793 44.2463 180.195 44.512 179.68C44.7776 179.156 45.1604 178.723 45.6604 178.379C46.1604 178.027 46.762 177.762 47.4651 177.582C48.1682 177.402 48.9534 177.312 49.8206 177.312H52.3401ZM59.7112 174.312V185H57.5432V172.32H59.6526L59.7112 174.312ZM63.6721 172.25L63.6604 174.266C63.4807 174.227 63.3088 174.203 63.1448 174.195C62.9885 174.18 62.8088 174.172 62.6057 174.172C62.1057 174.172 61.6643 174.25 61.2815 174.406C60.8987 174.562 60.5745 174.781 60.3088 175.062C60.0432 175.344 59.8323 175.68 59.676 176.07C59.5276 176.453 59.4299 176.875 59.3831 177.336L58.7737 177.688C58.7737 176.922 58.8479 176.203 58.9963 175.531C59.1526 174.859 59.3909 174.266 59.7112 173.75C60.0315 173.227 60.4377 172.82 60.9299 172.531C61.4299 172.234 62.0237 172.086 62.7112 172.086C62.8674 172.086 63.0471 172.105 63.2502 172.145C63.4534 172.176 63.594 172.211 63.6721 172.25ZM73.4338 182.539V167H75.6135V185H73.6213L73.4338 182.539ZM64.9026 178.801V178.555C64.9026 177.586 65.0198 176.707 65.2542 175.918C65.4963 175.121 65.8362 174.438 66.2737 173.867C66.719 173.297 67.2463 172.859 67.8557 172.555C68.4729 172.242 69.1604 172.086 69.9182 172.086C70.7151 172.086 71.4104 172.227 72.0042 172.508C72.6057 172.781 73.1135 173.184 73.5276 173.715C73.9495 174.238 74.2815 174.871 74.5237 175.613C74.7659 176.355 74.9338 177.195 75.0276 178.133V179.211C74.9417 180.141 74.7737 180.977 74.5237 181.719C74.2815 182.461 73.9495 183.094 73.5276 183.617C73.1135 184.141 72.6057 184.543 72.0042 184.824C71.4026 185.098 70.6995 185.234 69.8948 185.234C69.1526 185.234 68.4729 185.074 67.8557 184.754C67.2463 184.434 66.719 183.984 66.2737 183.406C65.8362 182.828 65.4963 182.148 65.2542 181.367C65.0198 180.578 64.9026 179.723 64.9026 178.801ZM67.0823 178.555V178.801C67.0823 179.434 67.1448 180.027 67.2698 180.582C67.4026 181.137 67.6057 181.625 67.8792 182.047C68.1526 182.469 68.5002 182.801 68.9221 183.043C69.344 183.277 69.8479 183.395 70.4338 183.395C71.1526 183.395 71.7424 183.242 72.2034 182.938C72.6721 182.633 73.0471 182.23 73.3284 181.73C73.6096 181.23 73.8284 180.688 73.9846 180.102V177.277C73.8909 176.848 73.7542 176.434 73.5745 176.035C73.4026 175.629 73.176 175.27 72.8948 174.957C72.6213 174.637 72.2815 174.383 71.8752 174.195C71.4768 174.008 71.0042 173.914 70.4573 173.914C69.8635 173.914 69.3518 174.039 68.9221 174.289C68.5002 174.531 68.1526 174.867 67.8792 175.297C67.6057 175.719 67.4026 176.211 67.2698 176.773C67.1448 177.328 67.0823 177.922 67.0823 178.555ZM86.4651 182.832V176.305C86.4651 175.805 86.3635 175.371 86.1604 175.004C85.9651 174.629 85.6682 174.34 85.2698 174.137C84.8713 173.934 84.3792 173.832 83.7932 173.832C83.2463 173.832 82.7659 173.926 82.3518 174.113C81.9456 174.301 81.6252 174.547 81.3909 174.852C81.1643 175.156 81.051 175.484 81.051 175.836H78.8831C78.8831 175.383 79.0002 174.934 79.2346 174.488C79.469 174.043 79.8049 173.641 80.2424 173.281C80.6877 172.914 81.219 172.625 81.8362 172.414C82.4612 172.195 83.1565 172.086 83.9221 172.086C84.844 172.086 85.6565 172.242 86.3596 172.555C87.0706 172.867 87.6252 173.34 88.0237 173.973C88.4299 174.598 88.6331 175.383 88.6331 176.328V182.234C88.6331 182.656 88.6682 183.105 88.7385 183.582C88.8167 184.059 88.9299 184.469 89.0784 184.812V185H86.8167C86.7073 184.75 86.6213 184.418 86.5588 184.004C86.4963 183.582 86.4651 183.191 86.4651 182.832ZM86.8401 177.312L86.8635 178.836H84.6721C84.0549 178.836 83.5042 178.887 83.0198 178.988C82.5354 179.082 82.1292 179.227 81.801 179.422C81.4729 179.617 81.2229 179.863 81.051 180.16C80.8792 180.449 80.7932 180.789 80.7932 181.18C80.7932 181.578 80.8831 181.941 81.0627 182.27C81.2424 182.598 81.512 182.859 81.8713 183.055C82.2385 183.242 82.6877 183.336 83.219 183.336C83.8831 183.336 84.469 183.195 84.9768 182.914C85.4846 182.633 85.887 182.289 86.1838 181.883C86.4885 181.477 86.6526 181.082 86.676 180.699L87.6018 181.742C87.5471 182.07 87.3987 182.434 87.1565 182.832C86.9143 183.23 86.5901 183.613 86.1838 183.98C85.7854 184.34 85.3088 184.641 84.7542 184.883C84.2073 185.117 83.5901 185.234 82.9026 185.234C82.0432 185.234 81.2893 185.066 80.6409 184.73C80.0002 184.395 79.5002 183.945 79.1409 183.383C78.7893 182.812 78.6135 182.176 78.6135 181.473C78.6135 180.793 78.7463 180.195 79.012 179.68C79.2776 179.156 79.6604 178.723 80.1604 178.379C80.6604 178.027 81.262 177.762 81.9651 177.582C82.6682 177.402 83.4534 177.312 84.3206 177.312H86.8401ZM94.2112 175.027V185H92.0432V172.32H94.094L94.2112 175.027ZM93.6956 178.18L92.7932 178.145C92.801 177.277 92.9299 176.477 93.1799 175.742C93.4299 175 93.7815 174.355 94.2346 173.809C94.6877 173.262 95.2268 172.84 95.8518 172.543C96.4846 172.238 97.1838 172.086 97.9495 172.086C98.5745 172.086 99.137 172.172 99.637 172.344C100.137 172.508 100.563 172.773 100.914 173.141C101.274 173.508 101.547 173.984 101.735 174.57C101.922 175.148 102.016 175.855 102.016 176.691V185H99.8362V176.668C99.8362 176.004 99.7385 175.473 99.5432 175.074C99.3479 174.668 99.0627 174.375 98.6877 174.195C98.3127 174.008 97.8518 173.914 97.3049 173.914C96.7659 173.914 96.2737 174.027 95.8284 174.254C95.3909 174.48 95.012 174.793 94.6917 175.191C94.3792 175.59 94.1331 176.047 93.9534 176.562C93.7815 177.07 93.6956 177.609 93.6956 178.18ZM113.301 182.539V167H115.481V185H113.489L113.301 182.539ZM104.77 178.801V178.555C104.77 177.586 104.887 176.707 105.121 175.918C105.364 175.121 105.703 174.438 106.141 173.867C106.586 173.297 107.114 172.859 107.723 172.555C108.34 172.242 109.028 172.086 109.785 172.086C110.582 172.086 111.278 172.227 111.871 172.508C112.473 172.781 112.981 173.184 113.395 173.715C113.817 174.238 114.149 174.871 114.391 175.613C114.633 176.355 114.801 177.195 114.895 178.133V179.211C114.809 180.141 114.641 180.977 114.391 181.719C114.149 182.461 113.817 183.094 113.395 183.617C112.981 184.141 112.473 184.543 111.871 184.824C111.27 185.098 110.567 185.234 109.762 185.234C109.02 185.234 108.34 185.074 107.723 184.754C107.114 184.434 106.586 183.984 106.141 183.406C105.703 182.828 105.364 182.148 105.121 181.367C104.887 180.578 104.77 179.723 104.77 178.801ZM106.949 178.555V178.801C106.949 179.434 107.012 180.027 107.137 180.582C107.27 181.137 107.473 181.625 107.746 182.047C108.02 182.469 108.367 182.801 108.789 183.043C109.211 183.277 109.715 183.395 110.301 183.395C111.02 183.395 111.61 183.242 112.071 182.938C112.539 182.633 112.914 182.23 113.196 181.73C113.477 181.23 113.696 180.688 113.852 180.102V177.277C113.758 176.848 113.621 176.434 113.442 176.035C113.27 175.629 113.043 175.27 112.762 174.957C112.489 174.637 112.149 174.383 111.742 174.195C111.344 174.008 110.871 173.914 110.324 173.914C109.731 173.914 109.219 174.039 108.789 174.289C108.367 174.531 108.02 174.867 107.746 175.297C107.473 175.719 107.27 176.211 107.137 176.773C107.012 177.328 106.949 177.922 106.949 178.555ZM118.281 178.801V178.531C118.281 177.617 118.414 176.77 118.68 175.988C118.946 175.199 119.328 174.516 119.828 173.938C120.328 173.352 120.934 172.898 121.645 172.578C122.356 172.25 123.153 172.086 124.035 172.086C124.926 172.086 125.727 172.25 126.438 172.578C127.156 172.898 127.766 173.352 128.266 173.938C128.774 174.516 129.16 175.199 129.426 175.988C129.692 176.77 129.824 177.617 129.824 178.531V178.801C129.824 179.715 129.692 180.562 129.426 181.344C129.16 182.125 128.774 182.809 128.266 183.395C127.766 183.973 127.16 184.426 126.449 184.754C125.746 185.074 124.949 185.234 124.059 185.234C123.168 185.234 122.367 185.074 121.656 184.754C120.946 184.426 120.336 183.973 119.828 183.395C119.328 182.809 118.946 182.125 118.68 181.344C118.414 180.562 118.281 179.715 118.281 178.801ZM120.449 178.531V178.801C120.449 179.434 120.524 180.031 120.672 180.594C120.821 181.148 121.043 181.641 121.34 182.07C121.645 182.5 122.024 182.84 122.477 183.09C122.93 183.332 123.457 183.453 124.059 183.453C124.653 183.453 125.172 183.332 125.617 183.09C126.071 182.84 126.446 182.5 126.742 182.07C127.039 181.641 127.262 181.148 127.41 180.594C127.567 180.031 127.645 179.434 127.645 178.801V178.531C127.645 177.906 127.567 177.316 127.41 176.762C127.262 176.199 127.035 175.703 126.731 175.273C126.434 174.836 126.059 174.492 125.606 174.242C125.16 173.992 124.637 173.867 124.035 173.867C123.442 173.867 122.918 173.992 122.465 174.242C122.02 174.492 121.645 174.836 121.34 175.273C121.043 175.703 120.821 176.199 120.672 176.762C120.524 177.316 120.449 177.906 120.449 178.531ZM140.664 174.758V189.875H138.485V172.32H140.477L140.664 174.758ZM149.207 178.555V178.801C149.207 179.723 149.098 180.578 148.879 181.367C148.66 182.148 148.34 182.828 147.918 183.406C147.504 183.984 146.992 184.434 146.383 184.754C145.774 185.074 145.074 185.234 144.285 185.234C143.481 185.234 142.77 185.102 142.153 184.836C141.535 184.57 141.012 184.184 140.582 183.676C140.153 183.168 139.809 182.559 139.551 181.848C139.301 181.137 139.129 180.336 139.035 179.445V178.133C139.129 177.195 139.305 176.355 139.563 175.613C139.821 174.871 140.16 174.238 140.582 173.715C141.012 173.184 141.531 172.781 142.141 172.508C142.75 172.227 143.453 172.086 144.25 172.086C145.047 172.086 145.754 172.242 146.371 172.555C146.989 172.859 147.508 173.297 147.93 173.867C148.352 174.438 148.668 175.121 148.879 175.918C149.098 176.707 149.207 177.586 149.207 178.555ZM147.028 178.801V178.555C147.028 177.922 146.961 177.328 146.828 176.773C146.696 176.211 146.489 175.719 146.207 175.297C145.934 174.867 145.582 174.531 145.153 174.289C144.723 174.039 144.211 173.914 143.617 173.914C143.071 173.914 142.594 174.008 142.188 174.195C141.789 174.383 141.449 174.637 141.168 174.957C140.887 175.27 140.656 175.629 140.477 176.035C140.305 176.434 140.176 176.848 140.09 177.277V180.312C140.246 180.859 140.465 181.375 140.746 181.859C141.028 182.336 141.403 182.723 141.871 183.02C142.34 183.309 142.93 183.453 143.641 183.453C144.227 183.453 144.731 183.332 145.153 183.09C145.582 182.84 145.934 182.5 146.207 182.07C146.489 181.641 146.696 181.148 146.828 180.594C146.961 180.031 147.028 179.434 147.028 178.801ZM159.449 182.832V176.305C159.449 175.805 159.348 175.371 159.145 175.004C158.949 174.629 158.653 174.34 158.254 174.137C157.856 173.934 157.364 173.832 156.778 173.832C156.231 173.832 155.75 173.926 155.336 174.113C154.93 174.301 154.61 174.547 154.375 174.852C154.149 175.156 154.035 175.484 154.035 175.836H151.867C151.867 175.383 151.985 174.934 152.219 174.488C152.453 174.043 152.789 173.641 153.227 173.281C153.672 172.914 154.203 172.625 154.821 172.414C155.446 172.195 156.141 172.086 156.906 172.086C157.828 172.086 158.641 172.242 159.344 172.555C160.055 172.867 160.61 173.34 161.008 173.973C161.414 174.598 161.617 175.383 161.617 176.328V182.234C161.617 182.656 161.653 183.105 161.723 183.582C161.801 184.059 161.914 184.469 162.063 184.812V185H159.801C159.692 184.75 159.606 184.418 159.543 184.004C159.481 183.582 159.449 183.191 159.449 182.832ZM159.824 177.312L159.848 178.836H157.656C157.039 178.836 156.489 178.887 156.004 178.988C155.52 179.082 155.114 179.227 154.785 179.422C154.457 179.617 154.207 179.863 154.035 180.16C153.864 180.449 153.778 180.789 153.778 181.18C153.778 181.578 153.867 181.941 154.047 182.27C154.227 182.598 154.496 182.859 154.856 183.055C155.223 183.242 155.672 183.336 156.203 183.336C156.867 183.336 157.453 183.195 157.961 182.914C158.469 182.633 158.871 182.289 159.168 181.883C159.473 181.477 159.637 181.082 159.66 180.699L160.586 181.742C160.531 182.07 160.383 182.434 160.141 182.832C159.899 183.23 159.574 183.613 159.168 183.98C158.77 184.34 158.293 184.641 157.739 184.883C157.192 185.117 156.574 185.234 155.887 185.234C155.028 185.234 154.274 185.066 153.625 184.73C152.985 184.395 152.485 183.945 152.125 183.383C151.774 182.812 151.598 182.176 151.598 181.473C151.598 180.793 151.731 180.195 151.996 179.68C152.262 179.156 152.645 178.723 153.145 178.379C153.645 178.027 154.246 177.762 154.949 177.582C155.653 177.402 156.438 177.312 157.305 177.312H159.824ZM173.242 172.32H175.211V184.73C175.211 185.848 174.985 186.801 174.531 187.59C174.078 188.379 173.446 188.977 172.633 189.383C171.828 189.797 170.899 190.004 169.844 190.004C169.406 190.004 168.891 189.934 168.297 189.793C167.711 189.66 167.133 189.43 166.563 189.102C166 188.781 165.528 188.348 165.145 187.801L166.281 186.512C166.813 187.152 167.367 187.598 167.946 187.848C168.531 188.098 169.11 188.223 169.68 188.223C170.367 188.223 170.961 188.094 171.461 187.836C171.961 187.578 172.348 187.195 172.621 186.688C172.903 186.188 173.043 185.57 173.043 184.836V175.109L173.242 172.32ZM164.512 178.801V178.555C164.512 177.586 164.625 176.707 164.852 175.918C165.086 175.121 165.418 174.438 165.848 173.867C166.285 173.297 166.813 172.859 167.43 172.555C168.047 172.242 168.742 172.086 169.516 172.086C170.313 172.086 171.008 172.227 171.602 172.508C172.203 172.781 172.711 173.184 173.125 173.715C173.547 174.238 173.879 174.871 174.121 175.613C174.364 176.355 174.531 177.195 174.625 178.133V179.211C174.539 180.141 174.371 180.977 174.121 181.719C173.879 182.461 173.547 183.094 173.125 183.617C172.711 184.141 172.203 184.543 171.602 184.824C171 185.098 170.297 185.234 169.492 185.234C168.735 185.234 168.047 185.074 167.43 184.754C166.821 184.434 166.297 183.984 165.86 183.406C165.422 182.828 165.086 182.148 164.852 181.367C164.625 180.578 164.512 179.723 164.512 178.801ZM166.68 178.555V178.801C166.68 179.434 166.742 180.027 166.867 180.582C167 181.137 167.199 181.625 167.465 182.047C167.739 182.469 168.086 182.801 168.508 183.043C168.93 183.277 169.434 183.395 170.02 183.395C170.739 183.395 171.332 183.242 171.801 182.938C172.27 182.633 172.641 182.23 172.914 181.73C173.196 181.23 173.414 180.688 173.571 180.102V177.277C173.485 176.848 173.352 176.434 173.172 176.035C173 175.629 172.774 175.27 172.492 174.957C172.219 174.637 171.879 174.383 171.473 174.195C171.067 174.008 170.59 173.914 170.043 173.914C169.449 173.914 168.938 174.039 168.508 174.289C168.086 174.531 167.739 174.867 167.465 175.297C167.199 175.719 167 176.211 166.867 176.773C166.742 177.328 166.68 177.922 166.68 178.555ZM185.981 182.832V176.305C185.981 175.805 185.879 175.371 185.676 175.004C185.481 174.629 185.184 174.34 184.785 174.137C184.387 173.934 183.895 173.832 183.309 173.832C182.762 173.832 182.281 173.926 181.867 174.113C181.461 174.301 181.141 174.547 180.906 174.852C180.68 175.156 180.567 175.484 180.567 175.836H178.399C178.399 175.383 178.516 174.934 178.75 174.488C178.985 174.043 179.321 173.641 179.758 173.281C180.203 172.914 180.735 172.625 181.352 172.414C181.977 172.195 182.672 172.086 183.438 172.086C184.36 172.086 185.172 172.242 185.875 172.555C186.586 172.867 187.141 173.34 187.539 173.973C187.946 174.598 188.149 175.383 188.149 176.328V182.234C188.149 182.656 188.184 183.105 188.254 183.582C188.332 184.059 188.446 184.469 188.594 184.812V185H186.332C186.223 184.75 186.137 184.418 186.074 184.004C186.012 183.582 185.981 183.191 185.981 182.832ZM186.356 177.312L186.379 178.836H184.188C183.571 178.836 183.02 178.887 182.535 178.988C182.051 179.082 181.645 179.227 181.317 179.422C180.989 179.617 180.739 179.863 180.567 180.16C180.395 180.449 180.309 180.789 180.309 181.18C180.309 181.578 180.399 181.941 180.578 182.27C180.758 182.598 181.028 182.859 181.387 183.055C181.754 183.242 182.203 183.336 182.735 183.336C183.399 183.336 183.985 183.195 184.492 182.914C185 182.633 185.403 182.289 185.699 181.883C186.004 181.477 186.168 181.082 186.192 180.699L187.117 181.742C187.063 182.07 186.914 182.434 186.672 182.832C186.43 183.23 186.106 183.613 185.699 183.98C185.301 184.34 184.824 184.641 184.27 184.883C183.723 185.117 183.106 185.234 182.418 185.234C181.559 185.234 180.805 185.066 180.156 184.73C179.516 184.395 179.016 183.945 178.656 183.383C178.305 182.812 178.129 182.176 178.129 181.473C178.129 180.793 178.262 180.195 178.528 179.68C178.793 179.156 179.176 178.723 179.676 178.379C180.176 178.027 180.778 177.762 181.481 177.582C182.184 177.402 182.969 177.312 183.836 177.312H186.356ZM193.715 174.84V185H191.535V172.32H193.598L193.715 174.84ZM193.27 178.18L192.262 178.145C192.27 177.277 192.383 176.477 192.602 175.742C192.821 175 193.145 174.355 193.574 173.809C194.004 173.262 194.539 172.84 195.18 172.543C195.821 172.238 196.563 172.086 197.406 172.086C198 172.086 198.547 172.172 199.047 172.344C199.547 172.508 199.981 172.77 200.348 173.129C200.715 173.488 201 173.949 201.203 174.512C201.406 175.074 201.508 175.754 201.508 176.551V185H199.34V176.656C199.34 175.992 199.227 175.461 199 175.062C198.781 174.664 198.469 174.375 198.063 174.195C197.656 174.008 197.18 173.914 196.633 173.914C195.992 173.914 195.457 174.027 195.028 174.254C194.598 174.48 194.254 174.793 193.996 175.191C193.739 175.59 193.551 176.047 193.434 176.562C193.324 177.07 193.27 177.609 193.27 178.18ZM201.485 176.984L200.031 177.43C200.039 176.734 200.153 176.066 200.371 175.426C200.598 174.785 200.922 174.215 201.344 173.715C201.774 173.215 202.301 172.82 202.926 172.531C203.551 172.234 204.266 172.086 205.071 172.086C205.75 172.086 206.352 172.176 206.875 172.355C207.406 172.535 207.852 172.812 208.211 173.188C208.578 173.555 208.856 174.027 209.043 174.605C209.231 175.184 209.324 175.871 209.324 176.668V185H207.145V176.645C207.145 175.934 207.031 175.383 206.805 174.992C206.586 174.594 206.274 174.316 205.867 174.16C205.469 173.996 204.992 173.914 204.438 173.914C203.961 173.914 203.539 173.996 203.172 174.16C202.805 174.324 202.496 174.551 202.246 174.84C201.996 175.121 201.805 175.445 201.672 175.812C201.547 176.18 201.485 176.57 201.485 176.984ZM217.867 185.234C216.985 185.234 216.184 185.086 215.465 184.789C214.754 184.484 214.141 184.059 213.625 183.512C213.117 182.965 212.727 182.316 212.453 181.566C212.18 180.816 212.043 179.996 212.043 179.105V178.613C212.043 177.582 212.196 176.664 212.5 175.859C212.805 175.047 213.219 174.359 213.742 173.797C214.266 173.234 214.86 172.809 215.524 172.52C216.188 172.23 216.875 172.086 217.586 172.086C218.492 172.086 219.274 172.242 219.93 172.555C220.594 172.867 221.137 173.305 221.559 173.867C221.981 174.422 222.293 175.078 222.496 175.836C222.699 176.586 222.801 177.406 222.801 178.297V179.27H213.332V177.5H220.633V177.336C220.602 176.773 220.485 176.227 220.281 175.695C220.086 175.164 219.774 174.727 219.344 174.383C218.914 174.039 218.328 173.867 217.586 173.867C217.094 173.867 216.641 173.973 216.227 174.184C215.813 174.387 215.457 174.691 215.16 175.098C214.864 175.504 214.633 176 214.469 176.586C214.305 177.172 214.223 177.848 214.223 178.613V179.105C214.223 179.707 214.305 180.273 214.469 180.805C214.641 181.328 214.887 181.789 215.207 182.188C215.535 182.586 215.93 182.898 216.391 183.125C216.86 183.352 217.391 183.465 217.985 183.465C218.75 183.465 219.399 183.309 219.93 182.996C220.461 182.684 220.926 182.266 221.324 181.742L222.637 182.785C222.364 183.199 222.016 183.594 221.594 183.969C221.172 184.344 220.653 184.648 220.035 184.883C219.426 185.117 218.703 185.234 217.867 185.234ZM227.5 175.027V185H225.332V172.32H227.383L227.5 175.027ZM226.985 178.18L226.082 178.145C226.09 177.277 226.219 176.477 226.469 175.742C226.719 175 227.071 174.355 227.524 173.809C227.977 173.262 228.516 172.84 229.141 172.543C229.774 172.238 230.473 172.086 231.239 172.086C231.864 172.086 232.426 172.172 232.926 172.344C233.426 172.508 233.852 172.773 234.203 173.141C234.563 173.508 234.836 173.984 235.024 174.57C235.211 175.148 235.305 175.855 235.305 176.691V185H233.125V176.668C233.125 176.004 233.028 175.473 232.832 175.074C232.637 174.668 232.352 174.375 231.977 174.195C231.602 174.008 231.141 173.914 230.594 173.914C230.055 173.914 229.563 174.027 229.117 174.254C228.68 174.48 228.301 174.793 227.981 175.191C227.668 175.59 227.422 176.047 227.242 176.562C227.071 177.07 226.985 177.609 226.985 178.18ZM243.906 172.32V173.984H237.051V172.32H243.906ZM239.371 169.238H241.539V181.859C241.539 182.289 241.606 182.613 241.739 182.832C241.871 183.051 242.043 183.195 242.254 183.266C242.465 183.336 242.692 183.371 242.934 183.371C243.114 183.371 243.301 183.355 243.496 183.324C243.699 183.285 243.852 183.254 243.953 183.23L243.965 185C243.793 185.055 243.567 185.105 243.285 185.152C243.012 185.207 242.68 185.234 242.289 185.234C241.758 185.234 241.27 185.129 240.824 184.918C240.379 184.707 240.024 184.355 239.758 183.863C239.5 183.363 239.371 182.691 239.371 181.848V169.238ZM245.641 178.801V178.531C245.641 177.617 245.774 176.77 246.039 175.988C246.305 175.199 246.688 174.516 247.188 173.938C247.688 173.352 248.293 172.898 249.004 172.578C249.715 172.25 250.512 172.086 251.395 172.086C252.285 172.086 253.086 172.25 253.797 172.578C254.516 172.898 255.125 173.352 255.625 173.938C256.133 174.516 256.52 175.199 256.785 175.988C257.051 176.77 257.184 177.617 257.184 178.531V178.801C257.184 179.715 257.051 180.562 256.785 181.344C256.52 182.125 256.133 182.809 255.625 183.395C255.125 183.973 254.52 184.426 253.809 184.754C253.106 185.074 252.309 185.234 251.418 185.234C250.528 185.234 249.727 185.074 249.016 184.754C248.305 184.426 247.696 183.973 247.188 183.395C246.688 182.809 246.305 182.125 246.039 181.344C245.774 180.562 245.641 179.715 245.641 178.801ZM247.809 178.531V178.801C247.809 179.434 247.883 180.031 248.031 180.594C248.18 181.148 248.403 181.641 248.699 182.07C249.004 182.5 249.383 182.84 249.836 183.09C250.289 183.332 250.817 183.453 251.418 183.453C252.012 183.453 252.531 183.332 252.977 183.09C253.43 182.84 253.805 182.5 254.102 182.07C254.399 181.641 254.621 181.148 254.77 180.594C254.926 180.031 255.004 179.434 255.004 178.801V178.531C255.004 177.906 254.926 177.316 254.77 176.762C254.621 176.199 254.395 175.703 254.09 175.273C253.793 174.836 253.418 174.492 252.965 174.242C252.52 173.992 251.996 173.867 251.395 173.867C250.801 173.867 250.278 173.992 249.824 174.242C249.379 174.492 249.004 174.836 248.699 175.273C248.403 175.703 248.18 176.199 248.031 176.762C247.883 177.316 247.809 177.906 247.809 178.531ZM268.024 175.027V185H265.856V172.32H267.906L268.024 175.027ZM267.508 178.18L266.606 178.145C266.614 177.277 266.742 176.477 266.992 175.742C267.242 175 267.594 174.355 268.047 173.809C268.5 173.262 269.039 172.84 269.664 172.543C270.297 172.238 270.996 172.086 271.762 172.086C272.387 172.086 272.949 172.172 273.449 172.344C273.949 172.508 274.375 172.773 274.727 173.141C275.086 173.508 275.36 173.984 275.547 174.57C275.735 175.148 275.828 175.855 275.828 176.691V185H273.649V176.668C273.649 176.004 273.551 175.473 273.356 175.074C273.16 174.668 272.875 174.375 272.5 174.195C272.125 174.008 271.664 173.914 271.117 173.914C270.578 173.914 270.086 174.027 269.641 174.254C269.203 174.48 268.824 174.793 268.504 175.191C268.192 175.59 267.946 176.047 267.766 176.562C267.594 177.07 267.508 177.609 267.508 178.18ZM278.547 178.801V178.531C278.547 177.617 278.68 176.77 278.946 175.988C279.211 175.199 279.594 174.516 280.094 173.938C280.594 173.352 281.199 172.898 281.91 172.578C282.621 172.25 283.418 172.086 284.301 172.086C285.192 172.086 285.992 172.25 286.703 172.578C287.422 172.898 288.031 173.352 288.531 173.938C289.039 174.516 289.426 175.199 289.692 175.988C289.957 176.77 290.09 177.617 290.09 178.531V178.801C290.09 179.715 289.957 180.562 289.692 181.344C289.426 182.125 289.039 182.809 288.531 183.395C288.031 183.973 287.426 184.426 286.715 184.754C286.012 185.074 285.215 185.234 284.324 185.234C283.434 185.234 282.633 185.074 281.922 184.754C281.211 184.426 280.602 183.973 280.094 183.395C279.594 182.809 279.211 182.125 278.946 181.344C278.68 180.562 278.547 179.715 278.547 178.801ZM280.715 178.531V178.801C280.715 179.434 280.789 180.031 280.938 180.594C281.086 181.148 281.309 181.641 281.606 182.07C281.91 182.5 282.289 182.84 282.742 183.09C283.196 183.332 283.723 183.453 284.324 183.453C284.918 183.453 285.438 183.332 285.883 183.09C286.336 182.84 286.711 182.5 287.008 182.07C287.305 181.641 287.528 181.148 287.676 180.594C287.832 180.031 287.91 179.434 287.91 178.801V178.531C287.91 177.906 287.832 177.316 287.676 176.762C287.528 176.199 287.301 175.703 286.996 175.273C286.699 174.836 286.324 174.492 285.871 174.242C285.426 173.992 284.903 173.867 284.301 173.867C283.707 173.867 283.184 173.992 282.731 174.242C282.285 174.492 281.91 174.836 281.606 175.273C281.309 175.703 281.086 176.199 280.938 176.762C280.789 177.316 280.715 177.906 280.715 178.531ZM303.836 183.453C304.352 183.453 304.828 183.348 305.266 183.137C305.703 182.926 306.063 182.637 306.344 182.27C306.625 181.895 306.785 181.469 306.824 180.992H308.887C308.848 181.742 308.594 182.441 308.125 183.09C307.664 183.73 307.059 184.25 306.309 184.648C305.559 185.039 304.735 185.234 303.836 185.234C302.883 185.234 302.051 185.066 301.34 184.73C300.637 184.395 300.051 183.934 299.582 183.348C299.121 182.762 298.774 182.09 298.539 181.332C298.313 180.566 298.199 179.758 298.199 178.906V178.414C298.199 177.562 298.313 176.758 298.539 176C298.774 175.234 299.121 174.559 299.582 173.973C300.051 173.387 300.637 172.926 301.34 172.59C302.051 172.254 302.883 172.086 303.836 172.086C304.828 172.086 305.696 172.289 306.438 172.695C307.18 173.094 307.762 173.641 308.184 174.336C308.614 175.023 308.848 175.805 308.887 176.68H306.824C306.785 176.156 306.637 175.684 306.379 175.262C306.129 174.84 305.785 174.504 305.348 174.254C304.918 173.996 304.414 173.867 303.836 173.867C303.172 173.867 302.614 174 302.16 174.266C301.715 174.523 301.36 174.875 301.094 175.32C300.836 175.758 300.649 176.246 300.531 176.785C300.422 177.316 300.367 177.859 300.367 178.414V178.906C300.367 179.461 300.422 180.008 300.531 180.547C300.641 181.086 300.824 181.574 301.082 182.012C301.348 182.449 301.703 182.801 302.149 183.066C302.602 183.324 303.164 183.453 303.836 183.453ZM318.801 182.832V176.305C318.801 175.805 318.699 175.371 318.496 175.004C318.301 174.629 318.004 174.34 317.606 174.137C317.207 173.934 316.715 173.832 316.129 173.832C315.582 173.832 315.102 173.926 314.688 174.113C314.281 174.301 313.961 174.547 313.727 174.852C313.5 175.156 313.387 175.484 313.387 175.836H311.219C311.219 175.383 311.336 174.934 311.571 174.488C311.805 174.043 312.141 173.641 312.578 173.281C313.024 172.914 313.555 172.625 314.172 172.414C314.797 172.195 315.492 172.086 316.258 172.086C317.18 172.086 317.992 172.242 318.696 172.555C319.406 172.867 319.961 173.34 320.36 173.973C320.766 174.598 320.969 175.383 320.969 176.328V182.234C320.969 182.656 321.004 183.105 321.074 183.582C321.153 184.059 321.266 184.469 321.414 184.812V185H319.153C319.043 184.75 318.957 184.418 318.895 184.004C318.832 183.582 318.801 183.191 318.801 182.832ZM319.176 177.312L319.199 178.836H317.008C316.391 178.836 315.84 178.887 315.356 178.988C314.871 179.082 314.465 179.227 314.137 179.422C313.809 179.617 313.559 179.863 313.387 180.16C313.215 180.449 313.129 180.789 313.129 181.18C313.129 181.578 313.219 181.941 313.399 182.27C313.578 182.598 313.848 182.859 314.207 183.055C314.574 183.242 315.024 183.336 315.555 183.336C316.219 183.336 316.805 183.195 317.313 182.914C317.821 182.633 318.223 182.289 318.52 181.883C318.824 181.477 318.989 181.082 319.012 180.699L319.938 181.742C319.883 182.07 319.735 182.434 319.492 182.832C319.25 183.23 318.926 183.613 318.52 183.98C318.121 184.34 317.645 184.641 317.09 184.883C316.543 185.117 315.926 185.234 315.239 185.234C314.379 185.234 313.625 185.066 312.977 184.73C312.336 184.395 311.836 183.945 311.477 183.383C311.125 182.812 310.949 182.176 310.949 181.473C310.949 180.793 311.082 180.195 311.348 179.68C311.614 179.156 311.996 178.723 312.496 178.379C312.996 178.027 313.598 177.762 314.301 177.582C315.004 177.402 315.789 177.312 316.656 177.312H319.176ZM326.735 172.32V185H324.555V172.32H326.735ZM324.391 168.957C324.391 168.605 324.496 168.309 324.707 168.066C324.926 167.824 325.246 167.703 325.668 167.703C326.082 167.703 326.399 167.824 326.617 168.066C326.844 168.309 326.957 168.605 326.957 168.957C326.957 169.293 326.844 169.582 326.617 169.824C326.399 170.059 326.082 170.176 325.668 170.176C325.246 170.176 324.926 170.059 324.707 169.824C324.496 169.582 324.391 169.293 324.391 168.957ZM331.68 172.32L334.457 176.938L337.27 172.32H339.813L335.664 178.578L339.942 185H337.434L334.504 180.242L331.574 185H329.055L333.321 178.578L329.184 172.32H331.68ZM349.598 182.832V176.305C349.598 175.805 349.496 175.371 349.293 175.004C349.098 174.629 348.801 174.34 348.403 174.137C348.004 173.934 347.512 173.832 346.926 173.832C346.379 173.832 345.899 173.926 345.485 174.113C345.078 174.301 344.758 174.547 344.524 174.852C344.297 175.156 344.184 175.484 344.184 175.836H342.016C342.016 175.383 342.133 174.934 342.367 174.488C342.602 174.043 342.938 173.641 343.375 173.281C343.821 172.914 344.352 172.625 344.969 172.414C345.594 172.195 346.289 172.086 347.055 172.086C347.977 172.086 348.789 172.242 349.492 172.555C350.203 172.867 350.758 173.34 351.156 173.973C351.563 174.598 351.766 175.383 351.766 176.328V182.234C351.766 182.656 351.801 183.105 351.871 183.582C351.949 184.059 352.063 184.469 352.211 184.812V185H349.949C349.84 184.75 349.754 184.418 349.692 184.004C349.629 183.582 349.598 183.191 349.598 182.832ZM349.973 177.312L349.996 178.836H347.805C347.188 178.836 346.637 178.887 346.153 178.988C345.668 179.082 345.262 179.227 344.934 179.422C344.606 179.617 344.356 179.863 344.184 180.16C344.012 180.449 343.926 180.789 343.926 181.18C343.926 181.578 344.016 181.941 344.196 182.27C344.375 182.598 344.645 182.859 345.004 183.055C345.371 183.242 345.821 183.336 346.352 183.336C347.016 183.336 347.602 183.195 348.11 182.914C348.617 182.633 349.02 182.289 349.317 181.883C349.621 181.477 349.785 181.082 349.809 180.699L350.735 181.742C350.68 182.07 350.531 182.434 350.289 182.832C350.047 183.23 349.723 183.613 349.317 183.98C348.918 184.34 348.442 184.641 347.887 184.883C347.34 185.117 346.723 185.234 346.035 185.234C345.176 185.234 344.422 185.066 343.774 184.73C343.133 184.395 342.633 183.945 342.274 183.383C341.922 182.812 341.746 182.176 341.746 181.473C341.746 180.793 341.879 180.195 342.145 179.68C342.41 179.156 342.793 178.723 343.293 178.379C343.793 178.027 344.395 177.762 345.098 177.582C345.801 177.402 346.586 177.312 347.453 177.312H349.973Z" fill="#C4C4CC"/>
</g>
</svg>
