<svg width="348" height="166" viewBox="0 0 348 166" fill="none" xmlns="http://www.w3.org/2000/svg">
<g opacity="0.4">
<path fill-rule="evenodd" clip-rule="evenodd" d="M198.894 37.2394C200.419 38.8378 200.36 41.3698 198.761 42.8947L169.411 70.8947C167.865 72.37 165.432 72.369 163.886 70.8923L149.236 56.8923C147.639 55.3661 147.582 52.8341 149.108 51.2369C150.634 49.6398 153.166 49.5824 154.764 51.1086L166.652 62.47L193.239 37.1063C194.837 35.5814 197.369 35.641 198.894 37.2394Z" fill="white"/>
<path fill-rule="evenodd" clip-rule="evenodd" d="M174 8C149.699 8 130 27.6995 130 52C130 76.3005 149.699 96 174 96C198.301 96 218 76.3005 218 52C218 27.6995 198.301 8 174 8ZM122 52C122 23.2812 145.281 0 174 0C202.719 0 226 23.2812 226 52C226 80.7188 202.719 104 174 104C145.281 104 122 80.7188 122 52Z" fill="white"/>
<path d="M64.9102 154.309H60.3516V152.469H64.9102C65.793 152.469 66.5079 152.328 67.0547 152.047C67.6016 151.766 68 151.375 68.25 150.875C68.5079 150.375 68.6368 149.805 68.6368 149.164C68.6368 148.578 68.5079 148.027 68.25 147.512C68 146.996 67.6016 146.582 67.0547 146.27C66.5079 145.949 65.793 145.789 64.9102 145.789H60.879V161H58.6172V143.938H64.9102C66.1993 143.938 67.2891 144.16 68.1797 144.605C69.0704 145.051 69.7461 145.668 70.2071 146.457C70.668 147.238 70.8985 148.133 70.8985 149.141C70.8985 150.234 70.668 151.168 70.2071 151.941C69.7461 152.715 69.0704 153.305 68.1797 153.711C67.2891 154.109 66.1993 154.309 64.9102 154.309ZM80.7657 158.832V152.305C80.7657 151.805 80.6641 151.371 80.461 151.004C80.2657 150.629 79.9688 150.34 79.5704 150.137C79.1719 149.934 78.6797 149.832 78.0938 149.832C77.5469 149.832 77.0665 149.926 76.6524 150.113C76.2461 150.301 75.9258 150.547 75.6915 150.852C75.4649 151.156 75.3516 151.484 75.3516 151.836H73.1836C73.1836 151.383 73.3008 150.934 73.5352 150.488C73.7696 150.043 74.1055 149.641 74.543 149.281C74.9883 148.914 75.5196 148.625 76.1368 148.414C76.7618 148.195 77.4571 148.086 78.2227 148.086C79.1446 148.086 79.9571 148.242 80.6602 148.555C81.3711 148.867 81.9258 149.34 82.3243 149.973C82.7305 150.598 82.9336 151.383 82.9336 152.328V158.234C82.9336 158.656 82.9688 159.105 83.0391 159.582C83.1172 160.059 83.2305 160.469 83.379 160.812V161H81.1172C81.0079 160.75 80.9219 160.418 80.8594 160.004C80.7969 159.582 80.7657 159.191 80.7657 158.832ZM81.1407 153.312L81.1641 154.836H78.9727C78.3555 154.836 77.8047 154.887 77.3204 154.988C76.836 155.082 76.4297 155.227 76.1016 155.422C75.7735 155.617 75.5235 155.863 75.3516 156.16C75.1797 156.449 75.0938 156.789 75.0938 157.18C75.0938 157.578 75.1836 157.941 75.3633 158.27C75.543 158.598 75.8125 158.859 76.1719 159.055C76.5391 159.242 76.9883 159.336 77.5196 159.336C78.1836 159.336 78.7696 159.195 79.2774 158.914C79.7852 158.633 80.1875 158.289 80.4844 157.883C80.7891 157.477 80.9532 157.082 80.9766 156.699L81.9024 157.742C81.8477 158.07 81.6993 158.434 81.4571 158.832C81.2149 159.23 80.8907 159.613 80.4844 159.98C80.086 160.34 79.6094 160.641 79.0547 160.883C78.5079 161.117 77.8907 161.234 77.2032 161.234C76.3438 161.234 75.5899 161.066 74.9415 160.73C74.3008 160.395 73.8008 159.945 73.4415 159.383C73.0899 158.812 72.9141 158.176 72.9141 157.473C72.9141 156.793 73.0469 156.195 73.3125 155.68C73.5782 155.156 73.961 154.723 74.461 154.379C74.961 154.027 75.5625 153.762 76.2657 153.582C76.9688 153.402 77.754 153.312 78.6211 153.312H81.1407ZM94.5586 148.32H96.5274V160.73C96.5274 161.848 96.3008 162.801 95.8477 163.59C95.3946 164.379 94.7618 164.977 93.9493 165.383C93.1446 165.797 92.2149 166.004 91.1602 166.004C90.7227 166.004 90.2071 165.934 89.6133 165.793C89.0274 165.66 88.4493 165.43 87.879 165.102C87.3165 164.781 86.8438 164.348 86.461 163.801L87.5977 162.512C88.129 163.152 88.6836 163.598 89.2618 163.848C89.8477 164.098 90.4258 164.223 90.9961 164.223C91.6836 164.223 92.2774 164.094 92.7774 163.836C93.2774 163.578 93.6641 163.195 93.9375 162.688C94.2188 162.188 94.3594 161.57 94.3594 160.836V151.109L94.5586 148.32ZM85.8282 154.801V154.555C85.8282 153.586 85.9415 152.707 86.168 151.918C86.4024 151.121 86.7344 150.438 87.1641 149.867C87.6016 149.297 88.129 148.859 88.7461 148.555C89.3633 148.242 90.0586 148.086 90.8321 148.086C91.629 148.086 92.3243 148.227 92.918 148.508C93.5196 148.781 94.0274 149.184 94.4415 149.715C94.8633 150.238 95.1954 150.871 95.4375 151.613C95.6797 152.355 95.8477 153.195 95.9415 154.133V155.211C95.8555 156.141 95.6875 156.977 95.4375 157.719C95.1954 158.461 94.8633 159.094 94.4415 159.617C94.0274 160.141 93.5196 160.543 92.918 160.824C92.3165 161.098 91.6133 161.234 90.8086 161.234C90.0508 161.234 89.3633 161.074 88.7461 160.754C88.1368 160.434 87.6133 159.984 87.1758 159.406C86.7383 158.828 86.4024 158.148 86.168 157.367C85.9415 156.578 85.8282 155.723 85.8282 154.801ZM87.9961 154.555V154.801C87.9961 155.434 88.0586 156.027 88.1836 156.582C88.3165 157.137 88.5157 157.625 88.7813 158.047C89.0547 158.469 89.4024 158.801 89.8243 159.043C90.2461 159.277 90.75 159.395 91.336 159.395C92.0547 159.395 92.6485 159.242 93.1172 158.938C93.586 158.633 93.9571 158.23 94.2305 157.73C94.5118 157.23 94.7305 156.688 94.8868 156.102V153.277C94.8008 152.848 94.668 152.434 94.4883 152.035C94.3165 151.629 94.0899 151.27 93.8086 150.957C93.5352 150.637 93.1954 150.383 92.7891 150.195C92.3829 150.008 91.9063 149.914 91.3594 149.914C90.7657 149.914 90.254 150.039 89.8243 150.289C89.4024 150.531 89.0547 150.867 88.7813 151.297C88.5157 151.719 88.3165 152.211 88.1836 152.773C88.0586 153.328 87.9961 153.922 87.9961 154.555ZM107.297 158.832V152.305C107.297 151.805 107.195 151.371 106.992 151.004C106.797 150.629 106.5 150.34 106.102 150.137C105.703 149.934 105.211 149.832 104.625 149.832C104.078 149.832 103.598 149.926 103.184 150.113C102.777 150.301 102.457 150.547 102.223 150.852C101.996 151.156 101.883 151.484 101.883 151.836H99.7149C99.7149 151.383 99.8321 150.934 100.066 150.488C100.301 150.043 100.637 149.641 101.074 149.281C101.52 148.914 102.051 148.625 102.668 148.414C103.293 148.195 103.988 148.086 104.754 148.086C105.676 148.086 106.488 148.242 107.191 148.555C107.902 148.867 108.457 149.34 108.856 149.973C109.262 150.598 109.465 151.383 109.465 152.328V158.234C109.465 158.656 109.5 159.105 109.57 159.582C109.648 160.059 109.762 160.469 109.91 160.812V161H107.648C107.539 160.75 107.453 160.418 107.391 160.004C107.328 159.582 107.297 159.191 107.297 158.832ZM107.672 153.312L107.695 154.836H105.504C104.887 154.836 104.336 154.887 103.852 154.988C103.367 155.082 102.961 155.227 102.633 155.422C102.305 155.617 102.055 155.863 101.883 156.16C101.711 156.449 101.625 156.789 101.625 157.18C101.625 157.578 101.715 157.941 101.895 158.27C102.074 158.598 102.344 158.859 102.703 159.055C103.07 159.242 103.52 159.336 104.051 159.336C104.715 159.336 105.301 159.195 105.809 158.914C106.316 158.633 106.719 158.289 107.016 157.883C107.32 157.477 107.484 157.082 107.508 156.699L108.434 157.742C108.379 158.07 108.231 158.434 107.988 158.832C107.746 159.23 107.422 159.613 107.016 159.98C106.617 160.34 106.141 160.641 105.586 160.883C105.039 161.117 104.422 161.234 103.734 161.234C102.875 161.234 102.121 161.066 101.473 160.73C100.832 160.395 100.332 159.945 99.9727 159.383C99.6211 158.812 99.4454 158.176 99.4454 157.473C99.4454 156.793 99.5782 156.195 99.8438 155.68C100.109 155.156 100.492 154.723 100.992 154.379C101.492 154.027 102.094 153.762 102.797 153.582C103.5 153.402 104.285 153.312 105.152 153.312H107.672ZM115.031 150.84V161H112.852V148.32H114.914L115.031 150.84ZM114.586 154.18L113.578 154.145C113.586 153.277 113.699 152.477 113.918 151.742C114.137 151 114.461 150.355 114.891 149.809C115.32 149.262 115.856 148.84 116.496 148.543C117.137 148.238 117.879 148.086 118.723 148.086C119.316 148.086 119.863 148.172 120.363 148.344C120.863 148.508 121.297 148.77 121.664 149.129C122.031 149.488 122.316 149.949 122.52 150.512C122.723 151.074 122.824 151.754 122.824 152.551V161H120.656V152.656C120.656 151.992 120.543 151.461 120.316 151.062C120.098 150.664 119.785 150.375 119.379 150.195C118.973 150.008 118.496 149.914 117.949 149.914C117.309 149.914 116.773 150.027 116.344 150.254C115.914 150.48 115.57 150.793 115.313 151.191C115.055 151.59 114.867 152.047 114.75 152.562C114.641 153.07 114.586 153.609 114.586 154.18ZM122.801 152.984L121.348 153.43C121.356 152.734 121.469 152.066 121.688 151.426C121.914 150.785 122.238 150.215 122.66 149.715C123.09 149.215 123.617 148.82 124.242 148.531C124.867 148.234 125.582 148.086 126.387 148.086C127.066 148.086 127.668 148.176 128.191 148.355C128.723 148.535 129.168 148.812 129.527 149.188C129.895 149.555 130.172 150.027 130.359 150.605C130.547 151.184 130.641 151.871 130.641 152.668V161H128.461V152.645C128.461 151.934 128.348 151.383 128.121 150.992C127.902 150.594 127.59 150.316 127.184 150.16C126.785 149.996 126.309 149.914 125.754 149.914C125.277 149.914 124.856 149.996 124.488 150.16C124.121 150.324 123.813 150.551 123.563 150.84C123.313 151.121 123.121 151.445 122.988 151.812C122.863 152.18 122.801 152.57 122.801 152.984ZM139.184 161.234C138.301 161.234 137.5 161.086 136.781 160.789C136.07 160.484 135.457 160.059 134.941 159.512C134.434 158.965 134.043 158.316 133.77 157.566C133.496 156.816 133.359 155.996 133.359 155.105V154.613C133.359 153.582 133.512 152.664 133.816 151.859C134.121 151.047 134.535 150.359 135.059 149.797C135.582 149.234 136.176 148.809 136.84 148.52C137.504 148.23 138.191 148.086 138.902 148.086C139.809 148.086 140.59 148.242 141.246 148.555C141.91 148.867 142.453 149.305 142.875 149.867C143.297 150.422 143.609 151.078 143.813 151.836C144.016 152.586 144.117 153.406 144.117 154.297V155.27H134.648V153.5H141.949V153.336C141.918 152.773 141.801 152.227 141.598 151.695C141.402 151.164 141.09 150.727 140.66 150.383C140.231 150.039 139.645 149.867 138.902 149.867C138.41 149.867 137.957 149.973 137.543 150.184C137.129 150.387 136.773 150.691 136.477 151.098C136.18 151.504 135.949 152 135.785 152.586C135.621 153.172 135.539 153.848 135.539 154.613V155.105C135.539 155.707 135.621 156.273 135.785 156.805C135.957 157.328 136.203 157.789 136.523 158.188C136.852 158.586 137.246 158.898 137.707 159.125C138.176 159.352 138.707 159.465 139.301 159.465C140.066 159.465 140.715 159.309 141.246 158.996C141.777 158.684 142.242 158.266 142.641 157.742L143.953 158.785C143.68 159.199 143.332 159.594 142.91 159.969C142.488 160.344 141.969 160.648 141.352 160.883C140.742 161.117 140.02 161.234 139.184 161.234ZM148.816 151.027V161H146.648V148.32H148.699L148.816 151.027ZM148.301 154.18L147.398 154.145C147.406 153.277 147.535 152.477 147.785 151.742C148.035 151 148.387 150.355 148.84 149.809C149.293 149.262 149.832 148.84 150.457 148.543C151.09 148.238 151.789 148.086 152.555 148.086C153.18 148.086 153.742 148.172 154.242 148.344C154.742 148.508 155.168 148.773 155.52 149.141C155.879 149.508 156.152 149.984 156.34 150.57C156.527 151.148 156.621 151.855 156.621 152.691V161H154.441V152.668C154.441 152.004 154.344 151.473 154.148 151.074C153.953 150.668 153.668 150.375 153.293 150.195C152.918 150.008 152.457 149.914 151.91 149.914C151.371 149.914 150.879 150.027 150.434 150.254C149.996 150.48 149.617 150.793 149.297 151.191C148.984 151.59 148.738 152.047 148.559 152.562C148.387 153.07 148.301 153.609 148.301 154.18ZM165.223 148.32V149.984H158.367V148.32H165.223ZM160.688 145.238H162.856V157.859C162.856 158.289 162.922 158.613 163.055 158.832C163.188 159.051 163.359 159.195 163.57 159.266C163.781 159.336 164.008 159.371 164.25 159.371C164.43 159.371 164.617 159.355 164.813 159.324C165.016 159.285 165.168 159.254 165.27 159.23L165.281 161C165.109 161.055 164.883 161.105 164.602 161.152C164.328 161.207 163.996 161.234 163.606 161.234C163.074 161.234 162.586 161.129 162.141 160.918C161.695 160.707 161.34 160.355 161.074 159.863C160.816 159.363 160.688 158.691 160.688 157.848V145.238ZM166.957 154.801V154.531C166.957 153.617 167.09 152.77 167.356 151.988C167.621 151.199 168.004 150.516 168.504 149.938C169.004 149.352 169.609 148.898 170.32 148.578C171.031 148.25 171.828 148.086 172.711 148.086C173.602 148.086 174.402 148.25 175.113 148.578C175.832 148.898 176.441 149.352 176.941 149.938C177.449 150.516 177.836 151.199 178.102 151.988C178.367 152.77 178.5 153.617 178.5 154.531V154.801C178.5 155.715 178.367 156.562 178.102 157.344C177.836 158.125 177.449 158.809 176.941 159.395C176.441 159.973 175.836 160.426 175.125 160.754C174.422 161.074 173.625 161.234 172.734 161.234C171.844 161.234 171.043 161.074 170.332 160.754C169.621 160.426 169.012 159.973 168.504 159.395C168.004 158.809 167.621 158.125 167.356 157.344C167.09 156.562 166.957 155.715 166.957 154.801ZM169.125 154.531V154.801C169.125 155.434 169.199 156.031 169.348 156.594C169.496 157.148 169.719 157.641 170.016 158.07C170.32 158.5 170.699 158.84 171.152 159.09C171.606 159.332 172.133 159.453 172.734 159.453C173.328 159.453 173.848 159.332 174.293 159.09C174.746 158.84 175.121 158.5 175.418 158.07C175.715 157.641 175.938 157.148 176.086 156.594C176.242 156.031 176.32 155.434 176.32 154.801V154.531C176.32 153.906 176.242 153.316 176.086 152.762C175.938 152.199 175.711 151.703 175.406 151.273C175.109 150.836 174.734 150.492 174.281 150.242C173.836 149.992 173.313 149.867 172.711 149.867C172.117 149.867 171.594 149.992 171.141 150.242C170.695 150.492 170.32 150.836 170.016 151.273C169.719 151.703 169.496 152.199 169.348 152.762C169.199 153.316 169.125 153.906 169.125 154.531ZM194.648 158.832V152.305C194.648 151.805 194.547 151.371 194.344 151.004C194.148 150.629 193.852 150.34 193.453 150.137C193.055 149.934 192.563 149.832 191.977 149.832C191.43 149.832 190.949 149.926 190.535 150.113C190.129 150.301 189.809 150.547 189.574 150.852C189.348 151.156 189.234 151.484 189.234 151.836H187.066C187.066 151.383 187.184 150.934 187.418 150.488C187.652 150.043 187.988 149.641 188.426 149.281C188.871 148.914 189.402 148.625 190.02 148.414C190.645 148.195 191.34 148.086 192.106 148.086C193.027 148.086 193.84 148.242 194.543 148.555C195.254 148.867 195.809 149.34 196.207 149.973C196.613 150.598 196.816 151.383 196.816 152.328V158.234C196.816 158.656 196.852 159.105 196.922 159.582C197 160.059 197.113 160.469 197.262 160.812V161H195C194.891 160.75 194.805 160.418 194.742 160.004C194.68 159.582 194.648 159.191 194.648 158.832ZM195.023 153.312L195.047 154.836H192.856C192.238 154.836 191.688 154.887 191.203 154.988C190.719 155.082 190.313 155.227 189.984 155.422C189.656 155.617 189.406 155.863 189.234 156.16C189.063 156.449 188.977 156.789 188.977 157.18C188.977 157.578 189.066 157.941 189.246 158.27C189.426 158.598 189.695 158.859 190.055 159.055C190.422 159.242 190.871 159.336 191.402 159.336C192.066 159.336 192.652 159.195 193.16 158.914C193.668 158.633 194.07 158.289 194.367 157.883C194.672 157.477 194.836 157.082 194.859 156.699L195.785 157.742C195.731 158.07 195.582 158.434 195.34 158.832C195.098 159.23 194.773 159.613 194.367 159.98C193.969 160.34 193.492 160.641 192.938 160.883C192.391 161.117 191.773 161.234 191.086 161.234C190.227 161.234 189.473 161.066 188.824 160.73C188.184 160.395 187.684 159.945 187.324 159.383C186.973 158.812 186.797 158.176 186.797 157.473C186.797 156.793 186.93 156.195 187.195 155.68C187.461 155.156 187.844 154.723 188.344 154.379C188.844 154.027 189.445 153.762 190.148 153.582C190.852 153.402 191.637 153.312 192.504 153.312H195.023ZM202.395 150.758V165.875H200.215V148.32H202.207L202.395 150.758ZM210.938 154.555V154.801C210.938 155.723 210.828 156.578 210.609 157.367C210.391 158.148 210.07 158.828 209.648 159.406C209.234 159.984 208.723 160.434 208.113 160.754C207.504 161.074 206.805 161.234 206.016 161.234C205.211 161.234 204.5 161.102 203.883 160.836C203.266 160.57 202.742 160.184 202.313 159.676C201.883 159.168 201.539 158.559 201.281 157.848C201.031 157.137 200.859 156.336 200.766 155.445V154.133C200.859 153.195 201.035 152.355 201.293 151.613C201.551 150.871 201.891 150.238 202.313 149.715C202.742 149.184 203.262 148.781 203.871 148.508C204.481 148.227 205.184 148.086 205.981 148.086C206.777 148.086 207.484 148.242 208.102 148.555C208.719 148.859 209.238 149.297 209.66 149.867C210.082 150.438 210.398 151.121 210.609 151.918C210.828 152.707 210.938 153.586 210.938 154.555ZM208.758 154.801V154.555C208.758 153.922 208.691 153.328 208.559 152.773C208.426 152.211 208.219 151.719 207.938 151.297C207.664 150.867 207.313 150.531 206.883 150.289C206.453 150.039 205.941 149.914 205.348 149.914C204.801 149.914 204.324 150.008 203.918 150.195C203.52 150.383 203.18 150.637 202.898 150.957C202.617 151.27 202.387 151.629 202.207 152.035C202.035 152.434 201.906 152.848 201.82 153.277V156.312C201.977 156.859 202.195 157.375 202.477 157.859C202.758 158.336 203.133 158.723 203.602 159.02C204.07 159.309 204.66 159.453 205.371 159.453C205.957 159.453 206.461 159.332 206.883 159.09C207.313 158.84 207.664 158.5 207.938 158.07C208.219 157.641 208.426 157.148 208.559 156.594C208.691 156.031 208.758 155.434 208.758 154.801ZM215.871 150.312V161H213.703V148.32H215.813L215.871 150.312ZM219.832 148.25L219.82 150.266C219.641 150.227 219.469 150.203 219.305 150.195C219.148 150.18 218.969 150.172 218.766 150.172C218.266 150.172 217.824 150.25 217.441 150.406C217.059 150.562 216.734 150.781 216.469 151.062C216.203 151.344 215.992 151.68 215.836 152.07C215.688 152.453 215.59 152.875 215.543 153.336L214.934 153.688C214.934 152.922 215.008 152.203 215.156 151.531C215.313 150.859 215.551 150.266 215.871 149.75C216.191 149.227 216.598 148.82 217.09 148.531C217.59 148.234 218.184 148.086 218.871 148.086C219.027 148.086 219.207 148.105 219.41 148.145C219.613 148.176 219.754 148.211 219.832 148.25ZM221.027 154.801V154.531C221.027 153.617 221.16 152.77 221.426 151.988C221.691 151.199 222.074 150.516 222.574 149.938C223.074 149.352 223.68 148.898 224.391 148.578C225.102 148.25 225.898 148.086 226.781 148.086C227.672 148.086 228.473 148.25 229.184 148.578C229.902 148.898 230.512 149.352 231.012 149.938C231.52 150.516 231.906 151.199 232.172 151.988C232.438 152.77 232.57 153.617 232.57 154.531V154.801C232.57 155.715 232.438 156.562 232.172 157.344C231.906 158.125 231.52 158.809 231.012 159.395C230.512 159.973 229.906 160.426 229.195 160.754C228.492 161.074 227.695 161.234 226.805 161.234C225.914 161.234 225.113 161.074 224.402 160.754C223.691 160.426 223.082 159.973 222.574 159.395C222.074 158.809 221.691 158.125 221.426 157.344C221.16 156.562 221.027 155.715 221.027 154.801ZM223.195 154.531V154.801C223.195 155.434 223.27 156.031 223.418 156.594C223.566 157.148 223.789 157.641 224.086 158.07C224.391 158.5 224.77 158.84 225.223 159.09C225.676 159.332 226.203 159.453 226.805 159.453C227.398 159.453 227.918 159.332 228.363 159.09C228.816 158.84 229.191 158.5 229.488 158.07C229.785 157.641 230.008 157.148 230.156 156.594C230.313 156.031 230.391 155.434 230.391 154.801V154.531C230.391 153.906 230.313 153.316 230.156 152.762C230.008 152.199 229.781 151.703 229.477 151.273C229.18 150.836 228.805 150.492 228.352 150.242C227.906 149.992 227.383 149.867 226.781 149.867C226.188 149.867 225.664 149.992 225.211 150.242C224.766 150.492 224.391 150.836 224.086 151.273C223.789 151.703 223.566 152.199 223.418 152.762C223.27 153.316 223.195 153.906 223.195 154.531ZM238.957 159.043L242.426 148.32H244.641L240.082 161H238.629L238.957 159.043ZM236.063 148.32L239.637 159.102L239.883 161H238.43L233.836 148.32H236.063ZM254.016 158.832V152.305C254.016 151.805 253.914 151.371 253.711 151.004C253.516 150.629 253.219 150.34 252.82 150.137C252.422 149.934 251.93 149.832 251.344 149.832C250.797 149.832 250.316 149.926 249.902 150.113C249.496 150.301 249.176 150.547 248.941 150.852C248.715 151.156 248.602 151.484 248.602 151.836H246.434C246.434 151.383 246.551 150.934 246.785 150.488C247.02 150.043 247.356 149.641 247.793 149.281C248.238 148.914 248.77 148.625 249.387 148.414C250.012 148.195 250.707 148.086 251.473 148.086C252.395 148.086 253.207 148.242 253.91 148.555C254.621 148.867 255.176 149.34 255.574 149.973C255.981 150.598 256.184 151.383 256.184 152.328V158.234C256.184 158.656 256.219 159.105 256.289 159.582C256.367 160.059 256.481 160.469 256.629 160.812V161H254.367C254.258 160.75 254.172 160.418 254.109 160.004C254.047 159.582 254.016 159.191 254.016 158.832ZM254.391 153.312L254.414 154.836H252.223C251.606 154.836 251.055 154.887 250.57 154.988C250.086 155.082 249.68 155.227 249.352 155.422C249.023 155.617 248.773 155.863 248.602 156.16C248.43 156.449 248.344 156.789 248.344 157.18C248.344 157.578 248.434 157.941 248.613 158.27C248.793 158.598 249.063 158.859 249.422 159.055C249.789 159.242 250.238 159.336 250.77 159.336C251.434 159.336 252.02 159.195 252.527 158.914C253.035 158.633 253.438 158.289 253.734 157.883C254.039 157.477 254.203 157.082 254.227 156.699L255.152 157.742C255.098 158.07 254.949 158.434 254.707 158.832C254.465 159.23 254.141 159.613 253.734 159.98C253.336 160.34 252.859 160.641 252.305 160.883C251.758 161.117 251.141 161.234 250.453 161.234C249.594 161.234 248.84 161.066 248.191 160.73C247.551 160.395 247.051 159.945 246.691 159.383C246.34 158.812 246.164 158.176 246.164 157.473C246.164 156.793 246.297 156.195 246.563 155.68C246.828 155.156 247.211 154.723 247.711 154.379C248.211 154.027 248.813 153.762 249.516 153.582C250.219 153.402 251.004 153.312 251.871 153.312H254.391ZM267.586 158.539V143H269.766V161H267.773L267.586 158.539ZM259.055 154.801V154.555C259.055 153.586 259.172 152.707 259.406 151.918C259.648 151.121 259.988 150.438 260.426 149.867C260.871 149.297 261.398 148.859 262.008 148.555C262.625 148.242 263.313 148.086 264.07 148.086C264.867 148.086 265.563 148.227 266.156 148.508C266.758 148.781 267.266 149.184 267.68 149.715C268.102 150.238 268.434 150.871 268.676 151.613C268.918 152.355 269.086 153.195 269.18 154.133V155.211C269.094 156.141 268.926 156.977 268.676 157.719C268.434 158.461 268.102 159.094 267.68 159.617C267.266 160.141 266.758 160.543 266.156 160.824C265.555 161.098 264.852 161.234 264.047 161.234C263.305 161.234 262.625 161.074 262.008 160.754C261.398 160.434 260.871 159.984 260.426 159.406C259.988 158.828 259.648 158.148 259.406 157.367C259.172 156.578 259.055 155.723 259.055 154.801ZM261.234 154.555V154.801C261.234 155.434 261.297 156.027 261.422 156.582C261.555 157.137 261.758 157.625 262.031 158.047C262.305 158.469 262.652 158.801 263.074 159.043C263.496 159.277 264 159.395 264.586 159.395C265.305 159.395 265.895 159.242 266.356 158.938C266.824 158.633 267.199 158.23 267.481 157.73C267.762 157.23 267.981 156.688 268.137 156.102V153.277C268.043 152.848 267.906 152.434 267.727 152.035C267.555 151.629 267.328 151.27 267.047 150.957C266.773 150.637 266.434 150.383 266.027 150.195C265.629 150.008 265.156 149.914 264.609 149.914C264.016 149.914 263.504 150.039 263.074 150.289C262.652 150.531 262.305 150.867 262.031 151.297C261.758 151.719 261.555 152.211 261.422 152.773C261.297 153.328 261.234 153.922 261.234 154.555ZM272.566 154.801V154.531C272.566 153.617 272.699 152.77 272.965 151.988C273.231 151.199 273.613 150.516 274.113 149.938C274.613 149.352 275.219 148.898 275.93 148.578C276.641 148.25 277.438 148.086 278.32 148.086C279.211 148.086 280.012 148.25 280.723 148.578C281.441 148.898 282.051 149.352 282.551 149.938C283.059 150.516 283.445 151.199 283.711 151.988C283.977 152.77 284.109 153.617 284.109 154.531V154.801C284.109 155.715 283.977 156.562 283.711 157.344C283.445 158.125 283.059 158.809 282.551 159.395C282.051 159.973 281.445 160.426 280.734 160.754C280.031 161.074 279.234 161.234 278.344 161.234C277.453 161.234 276.652 161.074 275.941 160.754C275.231 160.426 274.621 159.973 274.113 159.395C273.613 158.809 273.231 158.125 272.965 157.344C272.699 156.562 272.566 155.715 272.566 154.801ZM274.734 154.531V154.801C274.734 155.434 274.809 156.031 274.957 156.594C275.106 157.148 275.328 157.641 275.625 158.07C275.93 158.5 276.309 158.84 276.762 159.09C277.215 159.332 277.742 159.453 278.344 159.453C278.938 159.453 279.457 159.332 279.902 159.09C280.356 158.84 280.731 158.5 281.027 158.07C281.324 157.641 281.547 157.148 281.695 156.594C281.852 156.031 281.93 155.434 281.93 154.801V154.531C281.93 153.906 281.852 153.316 281.695 152.762C281.547 152.199 281.32 151.703 281.016 151.273C280.719 150.836 280.344 150.492 279.891 150.242C279.445 149.992 278.922 149.867 278.32 149.867C277.727 149.867 277.203 149.992 276.75 150.242C276.305 150.492 275.93 150.836 275.625 151.273C275.328 151.703 275.106 152.199 274.957 152.762C274.809 153.316 274.734 153.906 274.734 154.531ZM289.406 143.938L289.254 156.184H287.297L287.133 143.938H289.406ZM287.063 159.91C287.063 159.559 287.168 159.262 287.379 159.02C287.598 158.777 287.918 158.656 288.34 158.656C288.754 158.656 289.07 158.777 289.289 159.02C289.516 159.262 289.629 159.559 289.629 159.91C289.629 160.246 289.516 160.535 289.289 160.777C289.07 161.02 288.754 161.141 288.34 161.141C287.918 161.141 287.598 161.02 287.379 160.777C287.168 160.535 287.063 160.246 287.063 159.91Z" fill="#C4C4CC"/>
</g>
</svg>
