<svg width="349" height="166" viewBox="0 0 349 166" fill="none" xmlns="http://www.w3.org/2000/svg">
<g opacity="0.4">
<path fill-rule="evenodd" clip-rule="evenodd" d="M153.461 0.000624651C155.67 0.000624651 157.461 1.79147 157.461 4.0006V24.0005C157.461 26.2096 155.67 28.0005 153.461 28.0005C151.252 28.0005 149.461 26.2096 149.461 24.0005V4.0006C149.461 1.79147 151.252 0.000624651 153.461 0.000624651Z" fill="white"/>
<path fill-rule="evenodd" clip-rule="evenodd" d="M153.461 42.0004C155.67 42.0004 157.461 43.7912 157.461 46.0003V100C157.461 102.209 155.67 104 153.461 104C151.252 104 149.461 102.209 149.461 100V46.0003C149.461 43.7912 151.252 42.0004 153.461 42.0004Z" fill="white"/>
<path fill-rule="evenodd" clip-rule="evenodd" d="M140.119 0.0550481C142.298 0.418226 143.77 2.47912 143.407 4.65819L139.465 28.3109C139.545 31.9114 141.01 35.3477 143.562 37.8999C146.187 40.5254 149.748 42.0004 153.461 42.0004C157.174 42.0004 160.735 40.5254 163.361 37.8999C165.913 35.3477 167.378 31.9114 167.458 28.3109L163.516 4.65819C163.152 2.47912 164.625 0.418226 166.804 0.0550481C168.983 -0.30813 171.044 1.16394 171.407 3.34301L175.407 27.3429C175.443 27.5602 175.461 27.7801 175.461 28.0005C175.461 33.8352 173.143 39.4309 169.018 43.5567C164.892 47.6825 159.296 50.0003 153.461 50.0003C147.627 50.0003 142.031 47.6825 137.905 43.5567C133.779 39.4309 131.461 33.8352 131.461 28.0005C131.461 27.7801 131.48 27.5602 131.516 27.3429L135.516 3.34301C135.879 1.16394 137.94 -0.30813 140.119 0.0550481Z" fill="white"/>
<path fill-rule="evenodd" clip-rule="evenodd" d="M215.756 0.72435C216.824 1.47293 217.461 2.69576 217.461 4.0006V100C217.461 102.209 215.67 104 213.461 104C211.252 104 209.461 102.209 209.461 100V72.0002H185.461C184.326 72.0002 183.244 71.518 182.486 70.6737C181.727 69.8295 181.363 68.7027 181.484 67.5741L185.461 68.0002C181.484 67.5741 181.484 67.5752 181.484 67.5741L181.486 67.558L181.49 67.5217L181.504 67.3893C181.517 67.2749 181.537 67.1088 181.562 66.8941C181.614 66.4647 181.691 65.8407 181.797 65.0477C182.009 63.4622 182.336 61.1983 182.798 58.4602C183.72 52.9936 185.186 45.5926 187.363 37.91C189.531 30.2573 192.45 22.1595 196.335 15.3855C200.169 8.70031 205.278 2.72011 212.094 0.241449C213.32 -0.204471 214.687 -0.0242337 215.756 0.72435ZM190.023 64.0002H209.461V11.2033C207.284 13.235 205.215 15.982 203.275 19.3656C199.847 25.3415 197.141 32.7436 195.06 40.0908C192.986 47.4081 191.577 54.507 190.687 59.7903C190.419 61.3758 190.199 62.7937 190.023 64.0002Z" fill="white"/>
<path d="M92.5469 154.309H87.9883V152.469H92.5469C93.4297 152.469 94.1446 152.328 94.6915 152.047C95.2383 151.766 95.6368 151.375 95.8868 150.875C96.1446 150.375 96.2735 149.805 96.2735 149.164C96.2735 148.578 96.1446 148.027 95.8868 147.512C95.6368 146.996 95.2383 146.582 94.6915 146.27C94.1446 145.949 93.4297 145.789 92.5469 145.789H88.5157V161H86.254V143.938H92.5469C93.836 143.938 94.9258 144.16 95.8165 144.605C96.7071 145.051 97.3829 145.668 97.8438 146.457C98.3047 147.238 98.5352 148.133 98.5352 149.141C98.5352 150.234 98.3047 151.168 97.8438 151.941C97.3829 152.715 96.7071 153.305 95.8165 153.711C94.9258 154.109 93.836 154.309 92.5469 154.309ZM106.164 161.234C105.281 161.234 104.481 161.086 103.762 160.789C103.051 160.484 102.438 160.059 101.922 159.512C101.414 158.965 101.023 158.316 100.75 157.566C100.477 156.816 100.34 155.996 100.34 155.105V154.613C100.34 153.582 100.492 152.664 100.797 151.859C101.102 151.047 101.516 150.359 102.039 149.797C102.563 149.234 103.156 148.809 103.82 148.52C104.484 148.23 105.172 148.086 105.883 148.086C106.789 148.086 107.57 148.242 108.227 148.555C108.891 148.867 109.434 149.305 109.856 149.867C110.277 150.422 110.59 151.078 110.793 151.836C110.996 152.586 111.098 153.406 111.098 154.297V155.27H101.629V153.5H108.93V153.336C108.898 152.773 108.781 152.227 108.578 151.695C108.383 151.164 108.07 150.727 107.641 150.383C107.211 150.039 106.625 149.867 105.883 149.867C105.391 149.867 104.938 149.973 104.523 150.184C104.109 150.387 103.754 150.691 103.457 151.098C103.16 151.504 102.93 152 102.766 152.586C102.602 153.172 102.52 153.848 102.52 154.613V155.105C102.52 155.707 102.602 156.273 102.766 156.805C102.938 157.328 103.184 157.789 103.504 158.188C103.832 158.586 104.227 158.898 104.688 159.125C105.156 159.352 105.688 159.465 106.281 159.465C107.047 159.465 107.695 159.309 108.227 158.996C108.758 158.684 109.223 158.266 109.621 157.742L110.934 158.785C110.66 159.199 110.313 159.594 109.891 159.969C109.469 160.344 108.949 160.648 108.332 160.883C107.723 161.117 107 161.234 106.164 161.234ZM121.621 158.539V143H123.801V161H121.809L121.621 158.539ZM113.09 154.801V154.555C113.09 153.586 113.207 152.707 113.441 151.918C113.684 151.121 114.023 150.438 114.461 149.867C114.906 149.297 115.434 148.859 116.043 148.555C116.66 148.242 117.348 148.086 118.106 148.086C118.902 148.086 119.598 148.227 120.191 148.508C120.793 148.781 121.301 149.184 121.715 149.715C122.137 150.238 122.469 150.871 122.711 151.613C122.953 152.355 123.121 153.195 123.215 154.133V155.211C123.129 156.141 122.961 156.977 122.711 157.719C122.469 158.461 122.137 159.094 121.715 159.617C121.301 160.141 120.793 160.543 120.191 160.824C119.59 161.098 118.887 161.234 118.082 161.234C117.34 161.234 116.66 161.074 116.043 160.754C115.434 160.434 114.906 159.984 114.461 159.406C114.023 158.828 113.684 158.148 113.441 157.367C113.207 156.578 113.09 155.723 113.09 154.801ZM115.27 154.555V154.801C115.27 155.434 115.332 156.027 115.457 156.582C115.59 157.137 115.793 157.625 116.066 158.047C116.34 158.469 116.688 158.801 117.109 159.043C117.531 159.277 118.035 159.395 118.621 159.395C119.34 159.395 119.93 159.242 120.391 158.938C120.859 158.633 121.234 158.23 121.516 157.73C121.797 157.23 122.016 156.688 122.172 156.102V153.277C122.078 152.848 121.941 152.434 121.762 152.035C121.59 151.629 121.363 151.27 121.082 150.957C120.809 150.637 120.469 150.383 120.063 150.195C119.664 150.008 119.191 149.914 118.645 149.914C118.051 149.914 117.539 150.039 117.109 150.289C116.688 150.531 116.34 150.867 116.066 151.297C115.793 151.719 115.59 152.211 115.457 152.773C115.332 153.328 115.27 153.922 115.27 154.555ZM129.531 148.32V161H127.352V148.32H129.531ZM127.188 144.957C127.188 144.605 127.293 144.309 127.504 144.066C127.723 143.824 128.043 143.703 128.465 143.703C128.879 143.703 129.195 143.824 129.414 144.066C129.641 144.309 129.754 144.605 129.754 144.957C129.754 145.293 129.641 145.582 129.414 145.824C129.195 146.059 128.879 146.176 128.465 146.176C128.043 146.176 127.723 146.059 127.504 145.824C127.293 145.582 127.188 145.293 127.188 144.957ZM141.004 158.539V143H143.184V161H141.191L141.004 158.539ZM132.473 154.801V154.555C132.473 153.586 132.59 152.707 132.824 151.918C133.066 151.121 133.406 150.438 133.844 149.867C134.289 149.297 134.816 148.859 135.426 148.555C136.043 148.242 136.731 148.086 137.488 148.086C138.285 148.086 138.981 148.227 139.574 148.508C140.176 148.781 140.684 149.184 141.098 149.715C141.52 150.238 141.852 150.871 142.094 151.613C142.336 152.355 142.504 153.195 142.598 154.133V155.211C142.512 156.141 142.344 156.977 142.094 157.719C141.852 158.461 141.52 159.094 141.098 159.617C140.684 160.141 140.176 160.543 139.574 160.824C138.973 161.098 138.27 161.234 137.465 161.234C136.723 161.234 136.043 161.074 135.426 160.754C134.816 160.434 134.289 159.984 133.844 159.406C133.406 158.828 133.066 158.148 132.824 157.367C132.59 156.578 132.473 155.723 132.473 154.801ZM134.652 154.555V154.801C134.652 155.434 134.715 156.027 134.84 156.582C134.973 157.137 135.176 157.625 135.449 158.047C135.723 158.469 136.07 158.801 136.492 159.043C136.914 159.277 137.418 159.395 138.004 159.395C138.723 159.395 139.313 159.242 139.773 158.938C140.242 158.633 140.617 158.23 140.898 157.73C141.18 157.23 141.398 156.688 141.555 156.102V153.277C141.461 152.848 141.324 152.434 141.145 152.035C140.973 151.629 140.746 151.27 140.465 150.957C140.191 150.637 139.852 150.383 139.445 150.195C139.047 150.008 138.574 149.914 138.027 149.914C137.434 149.914 136.922 150.039 136.492 150.289C136.07 150.531 135.723 150.867 135.449 151.297C135.176 151.719 134.973 152.211 134.84 152.773C134.715 153.328 134.652 153.922 134.652 154.555ZM145.984 154.801V154.531C145.984 153.617 146.117 152.77 146.383 151.988C146.648 151.199 147.031 150.516 147.531 149.938C148.031 149.352 148.637 148.898 149.348 148.578C150.059 148.25 150.856 148.086 151.738 148.086C152.629 148.086 153.43 148.25 154.141 148.578C154.859 148.898 155.469 149.352 155.969 149.938C156.477 150.516 156.863 151.199 157.129 151.988C157.395 152.77 157.527 153.617 157.527 154.531V154.801C157.527 155.715 157.395 156.562 157.129 157.344C156.863 158.125 156.477 158.809 155.969 159.395C155.469 159.973 154.863 160.426 154.152 160.754C153.449 161.074 152.652 161.234 151.762 161.234C150.871 161.234 150.07 161.074 149.359 160.754C148.648 160.426 148.039 159.973 147.531 159.395C147.031 158.809 146.648 158.125 146.383 157.344C146.117 156.562 145.984 155.715 145.984 154.801ZM148.152 154.531V154.801C148.152 155.434 148.227 156.031 148.375 156.594C148.523 157.148 148.746 157.641 149.043 158.07C149.348 158.5 149.727 158.84 150.18 159.09C150.633 159.332 151.16 159.453 151.762 159.453C152.356 159.453 152.875 159.332 153.32 159.09C153.773 158.84 154.148 158.5 154.445 158.07C154.742 157.641 154.965 157.148 155.113 156.594C155.27 156.031 155.348 155.434 155.348 154.801V154.531C155.348 153.906 155.27 153.316 155.113 152.762C154.965 152.199 154.738 151.703 154.434 151.273C154.137 150.836 153.762 150.492 153.309 150.242C152.863 149.992 152.34 149.867 151.738 149.867C151.145 149.867 150.621 149.992 150.168 150.242C149.723 150.492 149.348 150.836 149.043 151.273C148.746 151.703 148.523 152.199 148.375 152.762C148.227 153.316 148.152 153.906 148.152 154.531ZM171.461 161.234C170.578 161.234 169.777 161.086 169.059 160.789C168.348 160.484 167.734 160.059 167.219 159.512C166.711 158.965 166.32 158.316 166.047 157.566C165.773 156.816 165.637 155.996 165.637 155.105V154.613C165.637 153.582 165.789 152.664 166.094 151.859C166.398 151.047 166.813 150.359 167.336 149.797C167.859 149.234 168.453 148.809 169.117 148.52C169.781 148.23 170.469 148.086 171.18 148.086C172.086 148.086 172.867 148.242 173.523 148.555C174.188 148.867 174.731 149.305 175.152 149.867C175.574 150.422 175.887 151.078 176.09 151.836C176.293 152.586 176.395 153.406 176.395 154.297V155.27H166.926V153.5H174.227V153.336C174.195 152.773 174.078 152.227 173.875 151.695C173.68 151.164 173.367 150.727 172.938 150.383C172.508 150.039 171.922 149.867 171.18 149.867C170.688 149.867 170.234 149.973 169.82 150.184C169.406 150.387 169.051 150.691 168.754 151.098C168.457 151.504 168.227 152 168.063 152.586C167.898 153.172 167.816 153.848 167.816 154.613V155.105C167.816 155.707 167.898 156.273 168.063 156.805C168.234 157.328 168.481 157.789 168.801 158.188C169.129 158.586 169.523 158.898 169.984 159.125C170.453 159.352 170.984 159.465 171.578 159.465C172.344 159.465 172.992 159.309 173.523 158.996C174.055 158.684 174.52 158.266 174.918 157.742L176.231 158.785C175.957 159.199 175.609 159.594 175.188 159.969C174.766 160.344 174.246 160.648 173.629 160.883C173.02 161.117 172.297 161.234 171.461 161.234ZM181.094 151.027V161H178.926V148.32H180.977L181.094 151.027ZM180.578 154.18L179.676 154.145C179.684 153.277 179.813 152.477 180.063 151.742C180.313 151 180.664 150.355 181.117 149.809C181.57 149.262 182.109 148.84 182.734 148.543C183.367 148.238 184.066 148.086 184.832 148.086C185.457 148.086 186.02 148.172 186.52 148.344C187.02 148.508 187.445 148.773 187.797 149.141C188.156 149.508 188.43 149.984 188.617 150.57C188.805 151.148 188.898 151.855 188.898 152.691V161H186.719V152.668C186.719 152.004 186.621 151.473 186.426 151.074C186.231 150.668 185.945 150.375 185.57 150.195C185.195 150.008 184.734 149.914 184.188 149.914C183.648 149.914 183.156 150.027 182.711 150.254C182.273 150.48 181.895 150.793 181.574 151.191C181.262 151.59 181.016 152.047 180.836 152.562C180.664 153.07 180.578 153.609 180.578 154.18ZM197.5 148.32V149.984H190.645V148.32H197.5ZM192.965 145.238H195.133V157.859C195.133 158.289 195.199 158.613 195.332 158.832C195.465 159.051 195.637 159.195 195.848 159.266C196.059 159.336 196.285 159.371 196.527 159.371C196.707 159.371 196.895 159.355 197.09 159.324C197.293 159.285 197.445 159.254 197.547 159.23L197.559 161C197.387 161.055 197.16 161.105 196.879 161.152C196.606 161.207 196.273 161.234 195.883 161.234C195.352 161.234 194.863 161.129 194.418 160.918C193.973 160.707 193.617 160.355 193.352 159.863C193.094 159.363 192.965 158.691 192.965 157.848V145.238ZM202.211 150.312V161H200.043V148.32H202.152L202.211 150.312ZM206.172 148.25L206.16 150.266C205.981 150.227 205.809 150.203 205.645 150.195C205.488 150.18 205.309 150.172 205.106 150.172C204.606 150.172 204.164 150.25 203.781 150.406C203.398 150.562 203.074 150.781 202.809 151.062C202.543 151.344 202.332 151.68 202.176 152.07C202.027 152.453 201.93 152.875 201.883 153.336L201.273 153.688C201.273 152.922 201.348 152.203 201.496 151.531C201.652 150.859 201.891 150.266 202.211 149.75C202.531 149.227 202.938 148.82 203.43 148.531C203.93 148.234 204.523 148.086 205.211 148.086C205.367 148.086 205.547 148.105 205.75 148.145C205.953 148.176 206.094 148.211 206.172 148.25ZM213.203 161.234C212.32 161.234 211.52 161.086 210.801 160.789C210.09 160.484 209.477 160.059 208.961 159.512C208.453 158.965 208.063 158.316 207.789 157.566C207.516 156.816 207.379 155.996 207.379 155.105V154.613C207.379 153.582 207.531 152.664 207.836 151.859C208.141 151.047 208.555 150.359 209.078 149.797C209.602 149.234 210.195 148.809 210.859 148.52C211.523 148.23 212.211 148.086 212.922 148.086C213.828 148.086 214.609 148.242 215.266 148.555C215.93 148.867 216.473 149.305 216.895 149.867C217.316 150.422 217.629 151.078 217.832 151.836C218.035 152.586 218.137 153.406 218.137 154.297V155.27H208.668V153.5H215.969V153.336C215.938 152.773 215.82 152.227 215.617 151.695C215.422 151.164 215.109 150.727 214.68 150.383C214.25 150.039 213.664 149.867 212.922 149.867C212.43 149.867 211.977 149.973 211.563 150.184C211.148 150.387 210.793 150.691 210.496 151.098C210.199 151.504 209.969 152 209.805 152.586C209.641 153.172 209.559 153.848 209.559 154.613V155.105C209.559 155.707 209.641 156.273 209.805 156.805C209.977 157.328 210.223 157.789 210.543 158.188C210.871 158.586 211.266 158.898 211.727 159.125C212.195 159.352 212.727 159.465 213.32 159.465C214.086 159.465 214.734 159.309 215.266 158.996C215.797 158.684 216.262 158.266 216.66 157.742L217.973 158.785C217.699 159.199 217.352 159.594 216.93 159.969C216.508 160.344 215.988 160.648 215.371 160.883C214.762 161.117 214.039 161.234 213.203 161.234ZM228.883 148.32H230.852V160.73C230.852 161.848 230.625 162.801 230.172 163.59C229.719 164.379 229.086 164.977 228.273 165.383C227.469 165.797 226.539 166.004 225.484 166.004C225.047 166.004 224.531 165.934 223.938 165.793C223.352 165.66 222.773 165.43 222.203 165.102C221.641 164.781 221.168 164.348 220.785 163.801L221.922 162.512C222.453 163.152 223.008 163.598 223.586 163.848C224.172 164.098 224.75 164.223 225.32 164.223C226.008 164.223 226.602 164.094 227.102 163.836C227.602 163.578 227.988 163.195 228.262 162.688C228.543 162.188 228.684 161.57 228.684 160.836V151.109L228.883 148.32ZM220.152 154.801V154.555C220.152 153.586 220.266 152.707 220.492 151.918C220.727 151.121 221.059 150.438 221.488 149.867C221.926 149.297 222.453 148.859 223.07 148.555C223.688 148.242 224.383 148.086 225.156 148.086C225.953 148.086 226.648 148.227 227.242 148.508C227.844 148.781 228.352 149.184 228.766 149.715C229.188 150.238 229.52 150.871 229.762 151.613C230.004 152.355 230.172 153.195 230.266 154.133V155.211C230.18 156.141 230.012 156.977 229.762 157.719C229.52 158.461 229.188 159.094 228.766 159.617C228.352 160.141 227.844 160.543 227.242 160.824C226.641 161.098 225.938 161.234 225.133 161.234C224.375 161.234 223.688 161.074 223.07 160.754C222.461 160.434 221.938 159.984 221.5 159.406C221.063 158.828 220.727 158.148 220.492 157.367C220.266 156.578 220.152 155.723 220.152 154.801ZM222.32 154.555V154.801C222.32 155.434 222.383 156.027 222.508 156.582C222.641 157.137 222.84 157.625 223.106 158.047C223.379 158.469 223.727 158.801 224.148 159.043C224.57 159.277 225.074 159.395 225.66 159.395C226.379 159.395 226.973 159.242 227.441 158.938C227.91 158.633 228.281 158.23 228.555 157.73C228.836 157.23 229.055 156.688 229.211 156.102V153.277C229.125 152.848 228.992 152.434 228.813 152.035C228.641 151.629 228.414 151.27 228.133 150.957C227.859 150.637 227.52 150.383 227.113 150.195C226.707 150.008 226.231 149.914 225.684 149.914C225.09 149.914 224.578 150.039 224.148 150.289C223.727 150.531 223.379 150.867 223.106 151.297C222.84 151.719 222.641 152.211 222.508 152.773C222.383 153.328 222.32 153.922 222.32 154.555ZM241.902 158.07V148.32H244.082V161H242.008L241.902 158.07ZM242.313 155.398L243.215 155.375C243.215 156.219 243.125 157 242.945 157.719C242.773 158.43 242.492 159.047 242.102 159.57C241.711 160.094 241.199 160.504 240.566 160.801C239.934 161.09 239.164 161.234 238.258 161.234C237.641 161.234 237.074 161.145 236.559 160.965C236.051 160.785 235.613 160.508 235.246 160.133C234.879 159.758 234.594 159.27 234.391 158.668C234.195 158.066 234.098 157.344 234.098 156.5V148.32H236.266V156.523C236.266 157.094 236.328 157.566 236.453 157.941C236.586 158.309 236.762 158.602 236.981 158.82C237.207 159.031 237.457 159.18 237.731 159.266C238.012 159.352 238.301 159.395 238.598 159.395C239.52 159.395 240.25 159.219 240.789 158.867C241.328 158.508 241.715 158.027 241.949 157.426C242.191 156.816 242.313 156.141 242.313 155.398ZM252.648 161.234C251.766 161.234 250.965 161.086 250.246 160.789C249.535 160.484 248.922 160.059 248.406 159.512C247.898 158.965 247.508 158.316 247.234 157.566C246.961 156.816 246.824 155.996 246.824 155.105V154.613C246.824 153.582 246.977 152.664 247.281 151.859C247.586 151.047 248 150.359 248.523 149.797C249.047 149.234 249.641 148.809 250.305 148.52C250.969 148.23 251.656 148.086 252.367 148.086C253.273 148.086 254.055 148.242 254.711 148.555C255.375 148.867 255.918 149.305 256.34 149.867C256.762 150.422 257.074 151.078 257.277 151.836C257.481 152.586 257.582 153.406 257.582 154.297V155.27H248.113V153.5H255.414V153.336C255.383 152.773 255.266 152.227 255.063 151.695C254.867 151.164 254.555 150.727 254.125 150.383C253.695 150.039 253.109 149.867 252.367 149.867C251.875 149.867 251.422 149.973 251.008 150.184C250.594 150.387 250.238 150.691 249.941 151.098C249.645 151.504 249.414 152 249.25 152.586C249.086 153.172 249.004 153.848 249.004 154.613V155.105C249.004 155.707 249.086 156.273 249.25 156.805C249.422 157.328 249.668 157.789 249.988 158.188C250.316 158.586 250.711 158.898 251.172 159.125C251.641 159.352 252.172 159.465 252.766 159.465C253.531 159.465 254.18 159.309 254.711 158.996C255.242 158.684 255.707 158.266 256.106 157.742L257.418 158.785C257.145 159.199 256.797 159.594 256.375 159.969C255.953 160.344 255.434 160.648 254.816 160.883C254.207 161.117 253.484 161.234 252.648 161.234ZM262.691 143.938L262.539 156.184H260.582L260.418 143.938H262.691ZM260.348 159.91C260.348 159.559 260.453 159.262 260.664 159.02C260.883 158.777 261.203 158.656 261.625 158.656C262.039 158.656 262.356 158.777 262.574 159.02C262.801 159.262 262.914 159.559 262.914 159.91C262.914 160.246 262.801 160.535 262.574 160.777C262.356 161.02 262.039 161.141 261.625 161.141C261.203 161.141 260.883 161.02 260.664 160.777C260.453 160.535 260.348 160.246 260.348 159.91Z" fill="#C4C4CC"/>
</g>
</svg>
